<svg width="65" height="65" viewBox="0 0 65 65" fill="none" xmlns="http://www.w3.org/2000/svg">
<path d="M48.42 14.4443L45.5193 46.9406L32.4801 50.5554L19.4768 46.9457L16.5791 14.4443H48.42Z" fill="#264DE4"/>
<path d="M43.0363 44.8713L45.5152 17.1018H32.5V47.7924L43.0363 44.8713Z" fill="#2965F1"/>
<path d="M23.2217 29.156L23.5789 33.1421H32.4992V29.156H23.2217Z" fill="#EBEBEB"/>
<path d="M32.4993 21.0879H32.4855H22.5039L22.8663 25.0741H32.4993V21.0879Z" fill="#EBEBEB"/>
<path d="M32.5 43.6557V39.5085L32.4825 39.5131L28.0431 38.3144L27.7593 35.1353H25.6021H23.7578L24.3163 41.3941L32.4816 43.6608L32.5 43.6557Z" fill="#EBEBEB"/>
<path d="M37.3939 33.1421L36.9312 38.3118L32.4854 39.5118V43.6589L40.6572 41.394L40.7171 40.7206L41.6538 30.2264L41.7511 29.156L42.4707 21.0879H32.4854V25.0741H38.1022L37.7395 29.156H32.4854V33.1421H37.3939Z" fill="#EBEBEB"/>
</svg>
