<svg width="43" height="43" viewBox="0 0 43 43" fill="none" xmlns="http://www.w3.org/2000/svg">
<path d="M40.9598 21.6606L21.6605 40.9598C21.3402 41.2801 20.8598 41.2801 20.5394 40.9598L1.24024 21.6606C0.91992 21.3402 0.91992 20.8598 1.24024 20.5395L20.5394 1.24024C20.8598 0.91992 21.3402 0.91992 21.6605 1.24024L40.9598 20.5395C41.2801 20.8598 41.2801 21.4203 40.9598 21.6606Z" stroke="#FFDF9E" stroke-width="1.6628" stroke-miterlimit="10"/>
<path d="M31.1098 22.8616L22.8616 31.1098C21.9006 32.0707 20.3791 32.0707 19.4982 31.1098L11.25 22.8616C10.2891 21.9006 10.2891 20.3791 11.25 19.4982L19.4982 11.25C20.4592 10.2891 21.9807 10.2891 22.8616 11.25L31.1098 19.4982C32.0707 20.3791 32.0707 21.9006 31.1098 22.8616Z" fill="#FFD580"/>
</svg>
