<svg width="28" height="28" viewBox="0 0 28 28" fill="none" xmlns="http://www.w3.org/2000/svg">
<path d="M26.0494 13.9514L13.9514 26.0494C13.7506 26.2502 13.4494 26.2502 13.2486 26.0494L1.1506 13.9514C0.949801 13.7506 0.949801 13.4494 1.1506 13.2486L13.2486 1.1506C13.4494 0.949801 13.7506 0.949801 13.9514 1.1506L26.0494 13.2486C26.2502 13.4494 26.2502 13.8008 26.0494 13.9514Z" stroke="#C4C4C4" stroke-width="1.6628" stroke-miterlimit="10"/>
<path d="M19.8748 14.7043L14.7043 19.8748C14.1019 20.4772 13.1481 20.4772 12.5959 19.8748L7.42543 14.7043C6.82304 14.1019 6.82304 13.1481 7.42543 12.596L12.5959 7.42543C13.1983 6.82304 14.1521 6.82304 14.7043 7.42543L19.8748 12.596C20.4772 13.1481 20.4772 14.1019 19.8748 14.7043Z" fill="#C4C4C4"/>
</svg>
