<svg width="65" height="65" viewBox="0 0 65 65" fill="none" xmlns="http://www.w3.org/2000/svg">
<path d="M26.4814 50.5556C29.8036 50.5556 32.4999 47.8593 32.4999 44.5371V38.5186H26.4814C23.1592 38.5186 20.4629 41.2148 20.4629 44.5371C20.4629 47.8593 23.1592 50.5556 26.4814 50.5556Z" fill="#0ACF83"/>
<path d="M20.4629 32.5C20.4629 29.1777 23.1592 26.4814 26.4814 26.4814H32.4999V38.5185H26.4814C23.1592 38.5185 20.4629 35.8222 20.4629 32.5Z" fill="#A259FF"/>
<path d="M20.4629 20.4629C20.4629 17.1406 23.1592 14.4443 26.4814 14.4443H32.4999V26.4814H26.4814C23.1592 26.4814 20.4629 23.7851 20.4629 20.4629Z" fill="#F24E1E"/>
<path d="M32.5 14.4443H38.5185C41.8408 14.4443 44.5371 17.1406 44.5371 20.4629C44.5371 23.7851 41.8408 26.4814 38.5185 26.4814H32.5V14.4443Z" fill="#FF7262"/>
<path d="M44.5371 32.5C44.5371 35.8222 41.8408 38.5185 38.5185 38.5185C35.1963 38.5185 32.5 35.8222 32.5 32.5C32.5 29.1777 35.1963 26.4814 38.5185 26.4814C41.8408 26.4814 44.5371 29.1777 44.5371 32.5Z" fill="#1ABCFE"/>
</svg>
