<svg width="65" height="65" viewBox="0 0 65 65" fill="none" xmlns="http://www.w3.org/2000/svg">
<path d="M49.8744 30.8912L34.108 15.1256C33.2005 14.2176 31.7279 14.2176 30.8193 15.1256L27.5453 18.3996L31.6985 22.5528C32.6637 22.2266 33.7704 22.4454 34.5397 23.2147C35.3127 23.989 35.53 25.1052 35.196 26.0735L39.1985 30.0761C40.1669 29.7425 41.2842 29.9584 42.0576 30.7331C43.1386 31.8136 43.1386 33.5648 42.0576 34.646C40.9764 35.7274 39.2252 35.7274 38.1434 34.646C37.3303 33.8321 37.1294 32.6381 37.5411 31.6364L33.8084 27.9037L33.8079 37.7266C34.0785 37.8604 34.3257 38.0371 34.5397 38.2499C35.6207 39.3305 35.6207 41.0819 34.5397 42.1639C33.4585 43.2447 31.7064 43.2447 30.6268 42.1639C29.5458 41.0819 29.5458 39.3306 30.6268 38.2501C30.8858 37.9909 31.1937 37.7857 31.5325 37.6462V27.7317C31.1932 27.5932 30.8851 27.3878 30.6268 27.1279C29.8078 26.31 29.6109 25.1083 30.0305 24.1027L25.9364 20.0082L15.1257 30.8183C14.2172 31.7271 14.2172 33.1999 15.1257 34.108L30.8924 49.8739C31.8001 50.7821 33.2725 50.7821 34.1813 49.8739L49.8743 34.1812C50.7824 33.2728 50.7824 31.7992 49.8743 30.8912" fill="#EF4444"/>
</svg>
