<svg width="65" height="65" viewBox="0 0 65 65" fill="none" xmlns="http://www.w3.org/2000/svg">
<path d="M27.7605 42.3711C27.7605 42.3711 26.3806 43.1735 28.7426 43.4451C31.6041 43.7715 33.0665 43.7247 36.22 43.1278C36.22 43.1278 37.0491 43.6477 38.2069 44.098C31.1378 47.1277 22.208 43.9225 27.7605 42.3711ZM26.8967 38.4175C26.8967 38.4175 25.3489 39.5632 27.7127 39.8076C30.7695 40.123 33.1834 40.1488 37.3606 39.3445C37.3606 39.3445 37.9384 39.9302 38.8468 40.2505C30.2998 42.7498 20.78 40.4476 26.8967 38.4175Z" fill="#5382A1"/>
<path d="M34.1797 31.711C35.9215 33.7164 33.722 35.521 33.722 35.521C33.722 35.521 38.1448 33.2378 36.1136 30.3787C34.2166 27.7126 32.7617 26.3876 40.6375 21.8201C40.6375 21.8201 28.2752 24.9076 34.1797 31.7109" fill="#EA580C"/>
<path d="M43.5288 45.2956C43.5288 45.2956 44.55 46.1369 42.4041 46.7879C38.3238 48.024 25.4211 48.3973 21.8368 46.8371C20.5484 46.2767 22.9646 45.4988 23.7246 45.3355C24.5173 45.1636 24.9703 45.1957 24.9703 45.1957C23.5374 44.1862 15.7085 47.1778 20.9937 48.0344C35.4068 50.3718 47.2674 46.9819 43.5288 45.2956ZM28.4245 34.3213C28.4245 34.3213 21.8615 35.8802 26.1004 36.4461C27.8902 36.6858 31.4581 36.6316 34.7816 36.3531C37.4977 36.1241 40.225 35.6369 40.225 35.6369C40.225 35.6369 39.2673 36.0471 38.5744 36.5202C31.9097 38.273 19.0346 37.4576 22.7412 35.6646C25.8758 34.1494 28.4246 34.3213 28.4246 34.3213H28.4245ZM40.1979 40.9022C46.973 37.3816 43.8405 33.9984 41.654 34.4543C41.1181 34.5657 40.8792 34.6623 40.8792 34.6623C40.8792 34.6623 41.0782 34.3508 41.4581 34.2159C45.7835 32.6951 49.1101 38.701 40.0618 41.0796C40.0618 41.0797 40.1666 40.986 40.1979 40.9022Z" fill="#5382A1"/>
<path d="M36.113 14.4444C36.113 14.4444 39.8652 18.1979 32.5543 23.9695C26.6918 28.5993 31.2175 31.2391 32.5519 34.2552C29.1298 31.1677 26.6184 28.4497 28.3033 25.9201C30.7762 22.2067 37.6269 20.4063 36.113 14.4443" fill="#EA580C"/>
<path d="M29.0906 50.4419C35.5938 50.8582 45.5802 50.2109 45.8167 47.1338C45.8167 47.1338 45.3621 48.3004 40.4421 49.2267C34.8915 50.2712 28.0457 50.1493 23.9854 49.4799C23.9855 49.4799 24.8166 50.1678 29.0908 50.4419" fill="#5382A1"/>
</svg>
