<svg width="65" height="65" viewBox="0 0 65 65" fill="none" xmlns="http://www.w3.org/2000/svg">
<path d="M50.5554 14.4443H14.4443V50.5554H50.5554V14.4443Z" fill="#F7DF1E"/>
<path d="M38.7015 42.6563C39.4289 43.8439 40.3753 44.7169 42.049 44.7169C43.455 44.7169 44.3532 44.0141 44.3532 43.0432C44.3532 41.8796 43.4304 41.4675 41.8827 40.7905L41.0344 40.4265C38.5857 39.3833 36.959 38.0764 36.959 35.3137C36.959 32.7687 38.8981 30.8313 41.9286 30.8313C44.0861 30.8313 45.6372 31.5822 46.7549 33.5482L44.1125 35.2449C43.5307 34.2017 42.903 33.7907 41.9286 33.7907C40.9347 33.7907 40.3048 34.4212 40.3048 35.2449C40.3048 36.2629 40.9353 36.675 42.3912 37.3055L43.2395 37.6689C46.1227 38.9053 47.7505 40.1657 47.7505 42.9996C47.7505 46.0547 45.3506 47.7284 42.1275 47.7284C38.9761 47.7284 36.9401 46.2267 35.9439 44.2583L38.7015 42.6563ZM26.7144 42.9503C27.2474 43.8961 27.7324 44.6957 28.8982 44.6957C30.0131 44.6957 30.7164 44.2595 30.7164 42.5634V31.025H34.1097V42.6093C34.1097 46.1229 32.0496 47.7221 29.0427 47.7221C26.3257 47.7221 24.7523 46.3161 23.9521 44.6226L26.7144 42.9503Z" fill="black"/>
</svg>
