<svg width="19" height="30" viewBox="0 0 19 30" fill="none" xmlns="http://www.w3.org/2000/svg">
<g clip-path="url(#clip0_464_279)">
<path fill-rule="evenodd" clip-rule="evenodd" d="M9.52605 15.0938V10.7745V7.22399C9.52605 6.71999 9.32541 6.2368 8.96867 5.88189L7.37477 4.29645L4.09274 1.02192C2.90484 -0.163238 0.881836 0.681094 0.881836 2.36202V19.1823C0.881836 20.8639 2.90615 21.7079 4.0937 20.5214L9.52605 15.0938ZM9.52605 15.0938V19.4356V23.0222C9.52605 23.5248 9.72564 24.0067 10.0805 24.3613L14.9062 29.1827C16.0937 30.3691 18.118 29.5251 18.118 27.8435V11.0277C18.118 9.34614 16.0937 8.50208 14.9062 9.6885L9.52605 15.0638V15.0938Z" fill="#C4C4C4"/>
</g>
<defs>
<clipPath id="clip0_464_279">
<rect width="19" height="30" fill="white"/>
</clipPath>
</defs>
</svg>
