<svg width="65" height="65" viewBox="0 0 65 65" fill="none" xmlns="http://www.w3.org/2000/svg">
<path d="M32.3698 14.5383C23.2025 14.5383 23.7749 18.5138 23.7749 18.5138L23.7851 22.6325H32.5333V23.869H20.3105C20.3105 23.869 14.4443 23.2038 14.4443 32.4535C14.4443 41.7034 19.5644 41.3754 19.5644 41.3754H22.6201V37.083C22.6201 37.083 22.4554 31.9629 27.6585 31.9629H36.3351C36.3351 31.9629 41.2099 32.0417 41.2099 27.2516V19.3315C41.2099 19.3315 41.9502 14.5383 32.3698 14.5383ZM27.5461 17.3081C27.7528 17.3079 27.9575 17.3485 28.1485 17.4275C28.3396 17.5065 28.5131 17.6224 28.6593 17.7686C28.8055 17.9148 28.9214 18.0884 29.0004 18.2794C29.0795 18.4704 29.12 18.6751 29.1199 18.8819C29.12 19.0886 29.0795 19.2933 29.0004 19.4843C28.9214 19.6754 28.8055 19.8489 28.6593 19.9951C28.5131 20.1413 28.3396 20.2572 28.1485 20.3362C27.9575 20.4153 27.7528 20.4558 27.5461 20.4556C27.3393 20.4558 27.1346 20.4153 26.9436 20.3362C26.7526 20.2572 26.579 20.1413 26.4328 19.9951C26.2866 19.8489 26.1707 19.6754 26.0917 19.4843C26.0127 19.2933 25.9721 19.0886 25.9723 18.8819C25.9721 18.6751 26.0127 18.4704 26.0917 18.2794C26.1707 18.0884 26.2866 17.9148 26.4328 17.7686C26.579 17.6224 26.7526 17.5065 26.9436 17.4275C27.1346 17.3485 27.3393 17.3079 27.5461 17.3081Z" fill="#0891B2"/>
<path d="M32.6298 50.4616C41.7971 50.4616 41.2247 46.4861 41.2247 46.4861L41.2145 42.3675H32.4662V41.131H44.689C44.689 41.131 50.5551 41.7963 50.5551 32.5463C50.5551 23.2964 45.435 23.6245 45.435 23.6245H42.3794V27.9167C42.3794 27.9167 42.5441 33.0368 37.341 33.0368H28.6644C28.6644 33.0368 23.7896 32.958 23.7896 37.7483V45.6685C23.7896 45.6685 23.0494 50.4616 32.6297 50.4616H32.6298ZM37.4536 47.6921C37.2468 47.6923 37.0421 47.6517 36.8511 47.5727C36.6601 47.4937 36.4865 47.3778 36.3403 47.2316C36.1941 47.0854 36.0782 46.9118 35.9992 46.7208C35.9202 46.5298 35.8796 46.3251 35.8798 46.1183C35.8796 45.9116 35.9201 45.7068 35.9992 45.5158C36.0782 45.3248 36.1941 45.1512 36.3403 45.005C36.4864 44.8588 36.66 44.7429 36.851 44.6638C37.0421 44.5848 37.2468 44.5442 37.4536 44.5444C37.6603 44.5442 37.865 44.5848 38.056 44.6638C38.2471 44.7428 38.4206 44.8588 38.5668 45.0049C38.713 45.1511 38.8289 45.3247 38.9079 45.5157C38.987 45.7067 39.0275 45.9115 39.0273 46.1182C39.0275 46.3249 38.987 46.5296 38.9079 46.7207C38.8289 46.9117 38.713 47.0853 38.5668 47.2314C38.4206 47.3776 38.2471 47.4935 38.056 47.5726C37.865 47.6516 37.6603 47.6922 37.4536 47.692V47.6921Z" fill="#FACC15"/>
</svg>
