<svg width="65" height="65" viewBox="0 0 65 65" fill="none" xmlns="http://www.w3.org/2000/svg">
<path d="M32.4991 35.6837C34.2573 35.6837 35.6827 34.2583 35.6827 32.5C35.6827 30.7418 34.2573 29.3164 32.4991 29.3164C30.7408 29.3164 29.3154 30.7418 29.3154 32.5C29.3154 34.2583 30.7408 35.6837 32.4991 35.6837Z" fill="#61DAFB"/>
<path fill-rule="evenodd" clip-rule="evenodd" d="M17.5368 30.8226C16.8159 31.4735 16.5773 32.0422 16.5773 32.4999C16.5773 32.9577 16.8159 33.5264 17.5368 34.1772C18.2576 34.8279 19.3659 35.4671 20.8341 36.0277C23.7625 37.1459 27.8866 37.8618 32.4995 37.8618C37.1125 37.8618 41.2365 37.1459 44.165 36.0277C45.6332 35.4671 46.7414 34.8279 47.4622 34.1772C48.1832 33.5264 48.4217 32.9577 48.4217 32.4999C48.4217 32.0422 48.1832 31.4735 47.4622 30.8226C46.7414 30.1719 45.6332 29.5327 44.165 28.9721C41.2365 27.854 37.1125 27.1381 32.4995 27.1381C27.8866 27.1381 23.7625 27.854 20.8341 28.9721C19.3659 29.5327 18.2576 30.1719 17.5368 30.8226ZM20.006 26.8034C23.2604 25.5609 27.6778 24.8167 32.4995 24.8167C37.3212 24.8167 41.7387 25.5609 44.993 26.8034C46.6162 27.4232 48.0097 28.1895 49.0178 29.0995C50.0257 30.0094 50.7432 31.1565 50.7432 32.4999C50.7432 33.8434 50.0257 34.9905 49.0178 35.9004C48.0097 36.8104 46.6162 37.5767 44.993 38.1965C41.7387 39.439 37.3212 40.1832 32.4995 40.1832C27.6778 40.1832 23.2604 39.439 20.006 38.1965C18.3828 37.5767 16.9893 36.8104 15.9813 35.9004C14.9733 34.9905 14.2559 33.8434 14.2559 32.4999C14.2559 31.1565 14.9733 30.0094 15.9813 29.0995C16.9893 28.1895 18.3828 27.4232 20.006 26.8034Z" fill="#61DAFB"/>
<path fill-rule="evenodd" clip-rule="evenodd" d="M26.4704 18.7033C25.5463 18.4043 24.9344 18.4821 24.538 18.7109C24.1416 18.9398 23.7684 19.4308 23.5652 20.3806C23.3621 21.3302 23.3626 22.6095 23.6113 24.1613C24.1072 27.2565 25.5492 31.186 27.8556 35.1809C30.1621 39.1759 32.8441 42.3894 35.2767 44.3665C36.4963 45.3577 37.604 45.9978 38.5279 46.2967C39.452 46.5957 40.0639 46.5179 40.4603 46.2891C40.8567 46.0602 41.2299 45.5692 41.4331 44.6194C41.6362 43.6698 41.6357 42.3905 41.387 40.8387C40.8911 37.7435 39.4491 33.814 37.1427 29.8191C34.8362 25.8241 32.1542 22.6106 29.7216 20.6335C28.502 19.6423 27.3943 19.0022 26.4704 18.7033ZM31.1857 18.8321C33.889 21.0291 36.7422 24.4826 39.1531 28.6584C41.5639 32.8341 43.1282 37.0318 43.6792 40.4714C43.9541 42.187 43.9872 43.777 43.7032 45.105C43.4192 46.4328 42.7844 47.6278 41.621 48.2995C40.4575 48.9712 39.1053 48.9234 37.8134 48.5055C36.5213 48.0875 35.1609 47.2638 33.8126 46.1679C31.1093 43.9709 28.2561 40.5174 25.8452 36.3417C23.4344 32.1659 21.8702 27.9682 21.3191 24.5286C21.0442 22.813 21.0111 21.223 21.2951 19.895C21.5791 18.5672 22.2139 17.3723 23.3773 16.7005C24.5408 16.0288 25.893 16.0766 27.1849 16.4945C28.477 16.9126 29.8374 17.7362 31.1857 18.8321Z" fill="#61DAFB"/>
<path fill-rule="evenodd" clip-rule="evenodd" d="M41.4336 20.3806C41.2304 19.4309 40.8571 18.9399 40.4607 18.711C40.0643 18.4821 39.4525 18.4044 38.5284 18.7033C37.6045 19.0022 36.4968 19.6424 35.2772 20.6336C32.8446 22.6106 30.1626 25.8242 27.8561 29.8191C25.5496 33.8141 24.1076 37.7435 23.6118 40.8387C23.3631 42.3905 23.3626 43.6699 23.5657 44.6195C23.7688 45.5693 24.1421 46.0603 24.5385 46.2891C24.9349 46.518 25.5468 46.5958 26.4709 46.2968C27.3948 45.9979 28.5025 45.3577 29.7221 44.3665C32.1546 42.3895 34.8367 39.1759 37.1431 35.181C39.4496 31.1861 40.8916 27.2566 41.3875 24.1614C41.6361 22.6096 41.6367 21.3302 41.4336 20.3806ZM43.6797 24.5286C43.1286 27.9683 41.5644 32.166 39.1536 36.3417C36.7427 40.5174 33.8895 43.9709 31.1862 46.168C29.8379 47.2638 28.4775 48.0875 27.1854 48.5055C25.8934 48.9235 24.5413 48.9713 23.3778 48.2995C22.2144 47.6278 21.5796 46.4329 21.2956 45.1051C21.0116 43.777 21.0447 42.1871 21.3196 40.4715C21.8706 37.0319 23.4349 32.8341 25.8457 28.6584C28.2566 24.4827 31.1098 21.0292 33.813 18.8321C35.1614 17.7363 36.5218 16.9126 37.8139 16.4946C39.1058 16.0766 40.458 16.0289 41.6215 16.7006C42.7849 17.3723 43.4196 18.5672 43.7037 19.8951C43.9877 21.2231 43.9546 22.813 43.6797 24.5286Z" fill="#61DAFB"/>
</svg>
