<svg width="65" height="65" viewBox="0 0 65 65" fill="none" xmlns="http://www.w3.org/2000/svg">
<g clip-path="url(#clip0_642_530)">
<path d="M32.0008 26.8983C39.0676 26.8983 44.7965 24.508 44.7965 21.5593C44.7965 18.6107 39.0676 16.2203 32.0008 16.2203C24.9339 16.2203 19.2051 18.6107 19.2051 21.5593C19.2051 24.508 24.9339 26.8983 32.0008 26.8983Z" stroke="#DF6C20" stroke-width="2"/>
<path d="M19.2051 21.5593V44.4407C19.2642 45.1429 19.6537 45.8381 20.3514 46.4869C21.0491 47.1356 22.0413 47.725 23.2713 48.2215C24.5013 48.7181 25.945 49.1119 27.5201 49.3806C29.0952 49.6493 30.7707 49.7876 32.4511 49.7876C34.1314 49.7876 35.7837 49.6493 37.3135 49.3806C38.8433 49.1119 40.2207 48.7181 41.3671 48.2215C42.5135 47.725 43.4064 47.1356 43.9948 46.4869C44.5832 45.8381 44.8556 45.1429 44.7965 44.4407V21.5593M19.2051 29.1864C19.2642 29.8886 19.6537 30.5839 20.3514 31.2326C21.0491 31.8814 22.0413 32.4708 23.2713 32.9673C24.5013 33.4638 25.945 33.8577 27.5201 34.1264C29.0952 34.3951 30.7707 34.5334 32.4511 34.5334C34.1314 34.5334 35.7837 34.3951 37.3135 34.1264C38.8433 33.8577 40.2207 33.4638 41.3671 32.9673C42.5135 32.4708 43.4064 31.8814 43.9948 31.2326C44.5832 30.5839 44.8556 29.8886 44.7965 29.1864M19.2051 36.8136C19.2642 37.5157 19.6537 38.211 20.3514 38.8598C21.0491 39.5085 22.0413 40.0979 23.2713 40.5944C24.5013 41.0909 25.945 41.4848 27.5201 41.7535C29.0952 42.0222 30.7707 42.1605 32.4511 42.1605C34.1314 42.1605 35.7837 42.0222 37.3135 41.7535C38.8433 41.4848 40.2207 41.0909 41.3671 40.5944C42.5135 40.0979 43.4064 39.5085 43.9948 38.8598C44.5832 38.211 44.8556 37.5157 44.7965 36.8136" stroke="#DF6C20" stroke-width="2"/>
</g>
<defs>
<clipPath id="clip0_642_530">
<rect width="28" height="36" fill="white" transform="translate(18 15)"/>
</clipPath>
</defs>
</svg>
