<svg width="53" height="52" viewBox="0 0 53 52" fill="none" xmlns="http://www.w3.org/2000/svg">
<rect width="1.41892" height="1.41892" rx="0.70946" fill="#C4C4C4" fill-opacity="0.5"/>
<rect x="5.67578" width="1.41892" height="1.41892" rx="0.70946" fill="#C4C4C4" fill-opacity="0.5"/>
<rect x="11.3516" width="1.41892" height="1.41892" rx="0.70946" fill="#C4C4C4" fill-opacity="0.5"/>
<rect x="17.0273" width="1.41892" height="1.41892" rx="0.70946" fill="#C4C4C4" fill-opacity="0.5"/>
<rect x="22.7031" width="1.41892" height="1.41892" rx="0.70946" fill="#C4C4C4" fill-opacity="0.5"/>
<rect x="28.3789" width="1.41892" height="1.41892" rx="0.70946" fill="#C4C4C4" fill-opacity="0.5"/>
<rect x="34.0547" width="1.41892" height="1.41892" rx="0.70946" fill="#C4C4C4" fill-opacity="0.5"/>
<rect x="39.7305" width="1.41892" height="1.41892" rx="0.70946" fill="#C4C4C4" fill-opacity="0.5"/>
<rect x="45.4053" width="1.41892" height="1.41892" rx="0.70946" fill="#C4C4C4" fill-opacity="0.5"/>
<rect x="51.0811" width="1.41892" height="1.41892" rx="0.70946" fill="#C4C4C4" fill-opacity="0.5"/>
<rect y="5.67566" width="1.41892" height="1.41892" rx="0.70946" fill="#C4C4C4" fill-opacity="0.5"/>
<rect x="5.67578" y="5.67566" width="1.41892" height="1.41892" rx="0.70946" fill="#C4C4C4" fill-opacity="0.5"/>
<rect x="11.3516" y="5.67566" width="1.41892" height="1.41892" rx="0.70946" fill="#C4C4C4" fill-opacity="0.5"/>
<rect x="17.0273" y="5.67566" width="1.41892" height="1.41892" rx="0.70946" fill="#C4C4C4" fill-opacity="0.5"/>
<rect x="22.7031" y="5.67566" width="1.41892" height="1.41892" rx="0.70946" fill="#C4C4C4" fill-opacity="0.5"/>
<rect x="28.3789" y="5.67566" width="1.41892" height="1.41892" rx="0.70946" fill="#C4C4C4" fill-opacity="0.5"/>
<rect x="34.0547" y="5.67566" width="1.41892" height="1.41892" rx="0.70946" fill="#C4C4C4" fill-opacity="0.5"/>
<rect x="39.7305" y="5.67566" width="1.41892" height="1.41892" rx="0.70946" fill="#C4C4C4" fill-opacity="0.5"/>
<rect x="45.4053" y="5.67566" width="1.41892" height="1.41892" rx="0.70946" fill="#C4C4C4" fill-opacity="0.5"/>
<rect x="51.0811" y="5.67566" width="1.41892" height="1.41892" rx="0.70946" fill="#C4C4C4" fill-opacity="0.5"/>
<rect y="11.3514" width="1.41892" height="1.41892" rx="0.70946" fill="#C4C4C4" fill-opacity="0.5"/>
<rect x="5.67578" y="11.3514" width="1.41892" height="1.41892" rx="0.70946" fill="#C4C4C4" fill-opacity="0.5"/>
<rect x="11.3516" y="11.3514" width="1.41892" height="1.41892" rx="0.70946" fill="#C4C4C4" fill-opacity="0.5"/>
<rect x="17.0273" y="11.3514" width="1.41892" height="1.41892" rx="0.70946" fill="#C4C4C4" fill-opacity="0.5"/>
<rect x="22.7031" y="11.3514" width="1.41892" height="1.41892" rx="0.70946" fill="#C4C4C4" fill-opacity="0.5"/>
<rect x="28.3789" y="11.3514" width="1.41892" height="1.41892" rx="0.70946" fill="#C4C4C4" fill-opacity="0.5"/>
<rect x="34.0547" y="11.3514" width="1.41892" height="1.41892" rx="0.70946" fill="#C4C4C4" fill-opacity="0.5"/>
<rect x="39.7305" y="11.3514" width="1.41892" height="1.41892" rx="0.70946" fill="#C4C4C4" fill-opacity="0.5"/>
<rect x="45.4053" y="11.3514" width="1.41892" height="1.41892" rx="0.70946" fill="#C4C4C4" fill-opacity="0.5"/>
<rect x="51.0811" y="11.3514" width="1.41892" height="1.41892" rx="0.70946" fill="#C4C4C4" fill-opacity="0.5"/>
<rect y="17.0271" width="1.41892" height="1.41892" rx="0.70946" fill="#C4C4C4" fill-opacity="0.5"/>
<rect x="5.67578" y="17.0271" width="1.41892" height="1.41892" rx="0.70946" fill="#C4C4C4" fill-opacity="0.5"/>
<rect x="11.3516" y="17.0271" width="1.41892" height="1.41892" rx="0.70946" fill="#C4C4C4" fill-opacity="0.5"/>
<rect x="17.0273" y="17.0271" width="1.41892" height="1.41892" rx="0.70946" fill="#C4C4C4" fill-opacity="0.5"/>
<rect x="22.7031" y="17.0271" width="1.41892" height="1.41892" rx="0.70946" fill="#C4C4C4" fill-opacity="0.5"/>
<rect x="28.3789" y="17.0271" width="1.41892" height="1.41892" rx="0.70946" fill="#C4C4C4" fill-opacity="0.5"/>
<rect x="34.0547" y="17.0271" width="1.41892" height="1.41892" rx="0.70946" fill="#C4C4C4" fill-opacity="0.5"/>
<rect x="39.7305" y="17.0271" width="1.41892" height="1.41892" rx="0.70946" fill="#C4C4C4" fill-opacity="0.5"/>
<rect x="45.4053" y="17.0271" width="1.41892" height="1.41892" rx="0.70946" fill="#C4C4C4" fill-opacity="0.5"/>
<rect x="51.0811" y="17.0271" width="1.41892" height="1.41892" rx="0.70946" fill="#C4C4C4" fill-opacity="0.5"/>
<rect y="22.7028" width="1.41892" height="1.41892" rx="0.70946" fill="#C4C4C4" fill-opacity="0.5"/>
<rect x="5.67578" y="22.7028" width="1.41892" height="1.41892" rx="0.70946" fill="#C4C4C4" fill-opacity="0.5"/>
<rect x="11.3516" y="22.7028" width="1.41892" height="1.41892" rx="0.70946" fill="#C4C4C4" fill-opacity="0.5"/>
<rect x="17.0273" y="22.7028" width="1.41892" height="1.41892" rx="0.70946" fill="#C4C4C4" fill-opacity="0.5"/>
<rect x="22.7031" y="22.7028" width="1.41892" height="1.41892" rx="0.70946" fill="#C4C4C4" fill-opacity="0.5"/>
<rect x="28.3789" y="22.7028" width="1.41892" height="1.41892" rx="0.70946" fill="#C4C4C4" fill-opacity="0.5"/>
<rect x="34.0547" y="22.7028" width="1.41892" height="1.41892" rx="0.70946" fill="#C4C4C4" fill-opacity="0.5"/>
<rect x="39.7305" y="22.7028" width="1.41892" height="1.41892" rx="0.70946" fill="#C4C4C4" fill-opacity="0.5"/>
<rect x="45.4053" y="22.7028" width="1.41892" height="1.41892" rx="0.70946" fill="#C4C4C4" fill-opacity="0.5"/>
<rect x="51.0811" y="22.7028" width="1.41892" height="1.41892" rx="0.70946" fill="#C4C4C4" fill-opacity="0.5"/>
<rect y="28.3784" width="1.41892" height="1.41892" rx="0.70946" fill="#C4C4C4" fill-opacity="0.5"/>
<rect x="5.67578" y="28.3784" width="1.41892" height="1.41892" rx="0.70946" fill="#C4C4C4" fill-opacity="0.5"/>
<rect x="11.3516" y="28.3784" width="1.41892" height="1.41892" rx="0.70946" fill="#C4C4C4" fill-opacity="0.5"/>
<rect x="17.0273" y="28.3784" width="1.41892" height="1.41892" rx="0.70946" fill="#C4C4C4" fill-opacity="0.5"/>
<rect x="22.7031" y="28.3784" width="1.41892" height="1.41892" rx="0.70946" fill="#C4C4C4" fill-opacity="0.5"/>
<rect x="28.3789" y="28.3784" width="1.41892" height="1.41892" rx="0.70946" fill="#C4C4C4" fill-opacity="0.5"/>
<rect x="34.0547" y="28.3784" width="1.41892" height="1.41892" rx="0.70946" fill="#C4C4C4" fill-opacity="0.5"/>
<rect x="39.7305" y="28.3784" width="1.41892" height="1.41892" rx="0.70946" fill="#C4C4C4" fill-opacity="0.5"/>
<rect x="45.4053" y="28.3784" width="1.41892" height="1.41892" rx="0.70946" fill="#C4C4C4" fill-opacity="0.5"/>
<rect x="51.0811" y="28.3784" width="1.41892" height="1.41892" rx="0.70946" fill="#C4C4C4" fill-opacity="0.5"/>
<rect y="34.0541" width="1.41892" height="1.41892" rx="0.70946" fill="#C4C4C4" fill-opacity="0.5"/>
<rect y="39.5281" width="1.41892" height="1.41892" rx="0.70946" fill="#C4C4C4" fill-opacity="0.5"/>
<rect y="45.0021" width="1.41892" height="1.41892" rx="0.70946" fill="#C4C4C4" fill-opacity="0.5"/>
<rect y="50.4761" width="1.41892" height="1.41892" rx="0.70946" fill="#C4C4C4" fill-opacity="0.5"/>
<rect x="5.67578" y="34.0541" width="1.41892" height="1.41892" rx="0.70946" fill="#C4C4C4" fill-opacity="0.5"/>
<rect x="5.67578" y="39.5281" width="1.41892" height="1.41892" rx="0.70946" fill="#C4C4C4" fill-opacity="0.5"/>
<rect x="5.67578" y="45.0021" width="1.41892" height="1.41892" rx="0.70946" fill="#C4C4C4" fill-opacity="0.5"/>
<rect x="5.67578" y="50.4761" width="1.41892" height="1.41892" rx="0.70946" fill="#C4C4C4" fill-opacity="0.5"/>
<rect x="11.3516" y="34.0541" width="1.41892" height="1.41892" rx="0.70946" fill="#C4C4C4" fill-opacity="0.5"/>
<rect x="11.3516" y="39.5281" width="1.41892" height="1.41892" rx="0.70946" fill="#C4C4C4" fill-opacity="0.5"/>
<rect x="11.3516" y="45.0021" width="1.41892" height="1.41892" rx="0.70946" fill="#C4C4C4" fill-opacity="0.5"/>
<rect x="11.3516" y="50.4761" width="1.41892" height="1.41892" rx="0.70946" fill="#C4C4C4" fill-opacity="0.5"/>
<rect x="17.0273" y="34.0541" width="1.41892" height="1.41892" rx="0.70946" fill="#C4C4C4" fill-opacity="0.5"/>
<rect x="17.0273" y="39.5281" width="1.41892" height="1.41892" rx="0.70946" fill="#C4C4C4" fill-opacity="0.5"/>
<rect x="17.0273" y="45.0021" width="1.41892" height="1.41892" rx="0.70946" fill="#C4C4C4" fill-opacity="0.5"/>
<rect x="17.0273" y="50.4761" width="1.41892" height="1.41892" rx="0.70946" fill="#C4C4C4" fill-opacity="0.5"/>
<rect x="22.7031" y="34.0541" width="1.41892" height="1.41892" rx="0.70946" fill="#C4C4C4" fill-opacity="0.5"/>
<rect x="22.7031" y="39.5281" width="1.41892" height="1.41892" rx="0.70946" fill="#C4C4C4" fill-opacity="0.5"/>
<rect x="22.7031" y="45.0021" width="1.41892" height="1.41892" rx="0.70946" fill="#C4C4C4" fill-opacity="0.5"/>
<rect x="22.7031" y="50.4761" width="1.41892" height="1.41892" rx="0.70946" fill="#C4C4C4" fill-opacity="0.5"/>
<rect x="28.3789" y="34.0541" width="1.41892" height="1.41892" rx="0.70946" fill="#C4C4C4" fill-opacity="0.5"/>
<rect x="28.3789" y="39.5281" width="1.41892" height="1.41892" rx="0.70946" fill="#C4C4C4" fill-opacity="0.5"/>
<rect x="28.3789" y="45.0021" width="1.41892" height="1.41892" rx="0.70946" fill="#C4C4C4" fill-opacity="0.5"/>
<rect x="28.3789" y="50.4761" width="1.41892" height="1.41892" rx="0.70946" fill="#C4C4C4" fill-opacity="0.5"/>
<rect x="34.0547" y="34.0541" width="1.41892" height="1.41892" rx="0.70946" fill="#C4C4C4" fill-opacity="0.5"/>
<rect x="34.0547" y="39.5281" width="1.41892" height="1.41892" rx="0.70946" fill="#C4C4C4" fill-opacity="0.5"/>
<rect x="34.0547" y="45.0021" width="1.41892" height="1.41892" rx="0.70946" fill="#C4C4C4" fill-opacity="0.5"/>
<rect x="34.0547" y="50.4761" width="1.41892" height="1.41892" rx="0.70946" fill="#C4C4C4" fill-opacity="0.5"/>
<rect x="39.7305" y="34.0541" width="1.41892" height="1.41892" rx="0.70946" fill="#C4C4C4" fill-opacity="0.5"/>
<rect x="39.7305" y="39.5281" width="1.41892" height="1.41892" rx="0.70946" fill="#C4C4C4" fill-opacity="0.5"/>
<rect x="39.7305" y="45.0021" width="1.41892" height="1.41892" rx="0.70946" fill="#C4C4C4" fill-opacity="0.5"/>
<rect x="39.7305" y="50.4761" width="1.41892" height="1.41892" rx="0.70946" fill="#C4C4C4" fill-opacity="0.5"/>
<rect x="45.4053" y="34.0541" width="1.41892" height="1.41892" rx="0.70946" fill="#C4C4C4" fill-opacity="0.5"/>
<rect x="45.4053" y="39.5281" width="1.41892" height="1.41892" rx="0.70946" fill="#C4C4C4" fill-opacity="0.5"/>
<rect x="45.4053" y="45.0021" width="1.41892" height="1.41892" rx="0.70946" fill="#C4C4C4" fill-opacity="0.5"/>
<rect x="45.4053" y="50.4761" width="1.41892" height="1.41892" rx="0.70946" fill="#C4C4C4" fill-opacity="0.5"/>
<rect x="51.0811" y="34.0541" width="1.41892" height="1.41892" rx="0.70946" fill="#C4C4C4" fill-opacity="0.5"/>
<rect x="51.0811" y="39.5281" width="1.41892" height="1.41892" rx="0.70946" fill="#C4C4C4" fill-opacity="0.5"/>
<rect x="51.0811" y="45.0021" width="1.41892" height="1.41892" rx="0.70946" fill="#C4C4C4" fill-opacity="0.5"/>
<rect x="51.0811" y="50.4761" width="1.41892" height="1.41892" rx="0.70946" fill="#C4C4C4" fill-opacity="0.5"/>
</svg>
