<svg width="71" height="68" viewBox="0 0 71 68" fill="none" xmlns="http://www.w3.org/2000/svg">
<rect width="1.91419" height="1.857" rx="0.928501" fill="#F6A4EC"/>
<rect x="7.65625" width="1.91419" height="1.857" rx="0.928501" fill="#F6A4EC"/>
<rect x="15.3145" width="1.91419" height="1.857" rx="0.928501" fill="#F6A4EC"/>
<rect x="22.9707" width="1.91419" height="1.857" rx="0.928501" fill="#F6A4EC"/>
<rect x="30.627" width="1.91419" height="1.857" rx="0.928501" fill="#F6A4EC"/>
<rect x="38.2832" width="1.91419" height="1.857" rx="0.928501" fill="#F6A4EC"/>
<rect x="45.9414" width="1.91419" height="1.857" rx="0.928501" fill="#F6A4EC"/>
<rect x="53.5977" width="1.91419" height="1.857" rx="0.928501" fill="#F6A4EC"/>
<rect x="61.2539" width="1.91419" height="1.857" rx="0.928501" fill="#F6A4EC"/>
<rect x="68.9102" width="1.91419" height="1.857" rx="0.928501" fill="#F6A4EC"/>
<rect y="7.43042" width="1.91419" height="1.857" rx="0.928501" fill="#F6A4EC"/>
<rect x="7.65625" y="7.43042" width="1.91419" height="1.857" rx="0.928501" fill="#F6A4EC"/>
<rect x="15.3145" y="7.43042" width="1.91419" height="1.857" rx="0.928501" fill="#F6A4EC"/>
<rect x="22.9707" y="7.43042" width="1.91419" height="1.857" rx="0.928501" fill="#F6A4EC"/>
<rect x="30.627" y="7.43042" width="1.91419" height="1.857" rx="0.928501" fill="#F6A4EC"/>
<rect x="38.2832" y="7.43042" width="1.91419" height="1.857" rx="0.928501" fill="#F6A4EC"/>
<rect x="45.9414" y="7.43042" width="1.91419" height="1.857" rx="0.928501" fill="#F6A4EC"/>
<rect x="53.5977" y="7.43042" width="1.91419" height="1.857" rx="0.928501" fill="#F6A4EC"/>
<rect x="61.2539" y="7.43042" width="1.91419" height="1.857" rx="0.928501" fill="#F6A4EC"/>
<rect x="68.9102" y="7.43042" width="1.91419" height="1.857" rx="0.928501" fill="#F6A4EC"/>
<rect y="14.861" width="1.91419" height="1.857" rx="0.928501" fill="#F6A4EC"/>
<rect x="7.65625" y="14.861" width="1.91419" height="1.857" rx="0.928501" fill="#F6A4EC"/>
<rect x="15.3145" y="14.861" width="1.91419" height="1.857" rx="0.928501" fill="#F6A4EC"/>
<rect x="22.9707" y="14.861" width="1.91419" height="1.857" rx="0.928501" fill="#F6A4EC"/>
<rect x="30.627" y="14.861" width="1.91419" height="1.857" rx="0.928501" fill="#F6A4EC"/>
<rect x="38.2832" y="14.861" width="1.91419" height="1.857" rx="0.928501" fill="#F6A4EC"/>
<rect x="45.9414" y="14.861" width="1.91419" height="1.857" rx="0.928501" fill="#F6A4EC"/>
<rect x="53.5977" y="14.861" width="1.91419" height="1.857" rx="0.928501" fill="#F6A4EC"/>
<rect x="61.2539" y="14.861" width="1.91419" height="1.857" rx="0.928501" fill="#F6A4EC"/>
<rect x="68.9102" y="14.861" width="1.91419" height="1.857" rx="0.928501" fill="#F6A4EC"/>
<rect y="22.2914" width="1.91419" height="1.857" rx="0.928501" fill="#F6A4EC"/>
<rect x="7.65625" y="22.2914" width="1.91419" height="1.857" rx="0.928501" fill="#F6A4EC"/>
<rect x="15.3145" y="22.2914" width="1.91419" height="1.857" rx="0.928501" fill="#F6A4EC"/>
<rect x="22.9707" y="22.2914" width="1.91419" height="1.857" rx="0.928501" fill="#F6A4EC"/>
<rect x="30.627" y="22.2914" width="1.91419" height="1.857" rx="0.928501" fill="#F6A4EC"/>
<rect x="38.2832" y="22.2914" width="1.91419" height="1.857" rx="0.928501" fill="#F6A4EC"/>
<rect x="45.9414" y="22.2914" width="1.91419" height="1.857" rx="0.928501" fill="#F6A4EC"/>
<rect x="53.5977" y="22.2914" width="1.91419" height="1.857" rx="0.928501" fill="#F6A4EC"/>
<rect x="61.2539" y="22.2914" width="1.91419" height="1.857" rx="0.928501" fill="#F6A4EC"/>
<rect x="68.9102" y="22.2914" width="1.91419" height="1.857" rx="0.928501" fill="#F6A4EC"/>
<rect y="29.7219" width="1.91419" height="1.857" rx="0.928501" fill="#F6A4EC"/>
<rect x="7.65625" y="29.7219" width="1.91419" height="1.857" rx="0.928501" fill="#F6A4EC"/>
<rect x="15.3145" y="29.7219" width="1.91419" height="1.857" rx="0.928501" fill="#F6A4EC"/>
<rect x="22.9707" y="29.7219" width="1.91419" height="1.857" rx="0.928501" fill="#F6A4EC"/>
<rect x="30.627" y="29.7219" width="1.91419" height="1.857" rx="0.928501" fill="#F6A4EC"/>
<rect x="38.2832" y="29.7219" width="1.91419" height="1.857" rx="0.928501" fill="#F6A4EC"/>
<rect x="45.9414" y="29.7219" width="1.91419" height="1.857" rx="0.928501" fill="#F6A4EC"/>
<rect x="53.5977" y="29.7219" width="1.91419" height="1.857" rx="0.928501" fill="#F6A4EC"/>
<rect x="61.2539" y="29.7219" width="1.91419" height="1.857" rx="0.928501" fill="#F6A4EC"/>
<rect x="68.9102" y="29.7219" width="1.91419" height="1.857" rx="0.928501" fill="#F6A4EC"/>
<rect y="37.1525" width="1.91419" height="1.857" rx="0.928501" fill="#F6A4EC"/>
<rect x="7.65625" y="37.1525" width="1.91419" height="1.857" rx="0.928501" fill="#F6A4EC"/>
<rect x="15.3145" y="37.1525" width="1.91419" height="1.857" rx="0.928501" fill="#F6A4EC"/>
<rect x="22.9707" y="37.1525" width="1.91419" height="1.857" rx="0.928501" fill="#F6A4EC"/>
<rect x="30.627" y="37.1525" width="1.91419" height="1.857" rx="0.928501" fill="#F6A4EC"/>
<rect x="38.2832" y="37.1525" width="1.91419" height="1.857" rx="0.928501" fill="#F6A4EC"/>
<rect x="45.9414" y="37.1525" width="1.91419" height="1.857" rx="0.928501" fill="#F6A4EC"/>
<rect x="53.5977" y="37.1525" width="1.91419" height="1.857" rx="0.928501" fill="#F6A4EC"/>
<rect x="61.2539" y="37.1525" width="1.91419" height="1.857" rx="0.928501" fill="#F6A4EC"/>
<rect x="68.9102" y="37.1525" width="1.91419" height="1.857" rx="0.928501" fill="#F6A4EC"/>
<rect y="44.583" width="1.91419" height="1.857" rx="0.928501" fill="#F6A4EC"/>
<rect y="51.7494" width="1.91419" height="1.857" rx="0.928501" fill="#F6A4EC"/>
<rect y="58.9158" width="1.91419" height="1.857" rx="0.928501" fill="#F6A4EC"/>
<rect y="66.0823" width="1.91419" height="1.857" rx="0.928501" fill="#F6A4EC"/>
<rect x="7.65625" y="44.583" width="1.91419" height="1.857" rx="0.928501" fill="#F6A4EC"/>
<rect x="7.65625" y="51.7494" width="1.91419" height="1.857" rx="0.928501" fill="#F6A4EC"/>
<rect x="7.65625" y="58.9158" width="1.91419" height="1.857" rx="0.928501" fill="#F6A4EC"/>
<rect x="7.65625" y="66.0823" width="1.91419" height="1.857" rx="0.928501" fill="#F6A4EC"/>
<rect x="15.3145" y="44.583" width="1.91419" height="1.857" rx="0.928501" fill="#F6A4EC"/>
<rect x="15.3145" y="51.7494" width="1.91419" height="1.857" rx="0.928501" fill="#F6A4EC"/>
<rect x="15.3145" y="58.9158" width="1.91419" height="1.857" rx="0.928501" fill="#F6A4EC"/>
<rect x="15.3145" y="66.0823" width="1.91419" height="1.857" rx="0.928501" fill="#F6A4EC"/>
<rect x="22.9707" y="44.583" width="1.91419" height="1.857" rx="0.928501" fill="#F6A4EC"/>
<rect x="22.9707" y="51.7494" width="1.91419" height="1.857" rx="0.928501" fill="#F6A4EC"/>
<rect x="22.9707" y="58.9158" width="1.91419" height="1.857" rx="0.928501" fill="#F6A4EC"/>
<rect x="22.9707" y="66.0823" width="1.91419" height="1.857" rx="0.928501" fill="#F6A4EC"/>
<rect x="30.627" y="44.583" width="1.91419" height="1.857" rx="0.928501" fill="#F6A4EC"/>
<rect x="30.627" y="51.7494" width="1.91419" height="1.857" rx="0.928501" fill="#F6A4EC"/>
<rect x="30.627" y="58.9158" width="1.91419" height="1.857" rx="0.928501" fill="#F6A4EC"/>
<rect x="30.627" y="66.0823" width="1.91419" height="1.857" rx="0.928501" fill="#F6A4EC"/>
<rect x="38.2832" y="44.583" width="1.91419" height="1.857" rx="0.928501" fill="#F6A4EC"/>
<rect x="38.2832" y="51.7494" width="1.91419" height="1.857" rx="0.928501" fill="#F6A4EC"/>
<rect x="38.2832" y="58.9158" width="1.91419" height="1.857" rx="0.928501" fill="#F6A4EC"/>
<rect x="38.2832" y="66.0823" width="1.91419" height="1.857" rx="0.928501" fill="#F6A4EC"/>
<rect x="45.9414" y="44.583" width="1.91419" height="1.857" rx="0.928501" fill="#F6A4EC"/>
<rect x="45.9414" y="51.7494" width="1.91419" height="1.857" rx="0.928501" fill="#F6A4EC"/>
<rect x="45.9414" y="58.9158" width="1.91419" height="1.857" rx="0.928501" fill="#F6A4EC"/>
<rect x="45.9414" y="66.0823" width="1.91419" height="1.857" rx="0.928501" fill="#F6A4EC"/>
<rect x="53.5977" y="44.583" width="1.91419" height="1.857" rx="0.928501" fill="#F6A4EC"/>
<rect x="53.5977" y="51.7494" width="1.91419" height="1.857" rx="0.928501" fill="#F6A4EC"/>
<rect x="53.5977" y="58.9158" width="1.91419" height="1.857" rx="0.928501" fill="#F6A4EC"/>
<rect x="53.5977" y="66.0823" width="1.91419" height="1.857" rx="0.928501" fill="#F6A4EC"/>
<rect x="61.2539" y="44.583" width="1.91419" height="1.857" rx="0.928501" fill="#F6A4EC"/>
<rect x="61.2539" y="51.7494" width="1.91419" height="1.857" rx="0.928501" fill="#F6A4EC"/>
<rect x="61.2539" y="58.9158" width="1.91419" height="1.857" rx="0.928501" fill="#F6A4EC"/>
<rect x="61.2539" y="66.0823" width="1.91419" height="1.857" rx="0.928501" fill="#F6A4EC"/>
<rect x="68.9102" y="44.583" width="1.91419" height="1.857" rx="0.928501" fill="#F6A4EC"/>
<rect x="68.9102" y="51.7494" width="1.91419" height="1.857" rx="0.928501" fill="#F6A4EC"/>
<rect x="68.9102" y="58.9158" width="1.91419" height="1.857" rx="0.928501" fill="#F6A4EC"/>
<rect x="68.9102" y="66.0823" width="1.91419" height="1.857" rx="0.928501" fill="#F6A4EC"/>
</svg>
