<svg width="75" height="79" viewBox="0 0 75 79" fill="none" xmlns="http://www.w3.org/2000/svg">
<path d="M20.4395 62.6572L23.4135 65.7038" stroke="#85B9FF" stroke-width="1.1533" stroke-miterlimit="10" stroke-linecap="round" stroke-linejoin="round"/>
<path d="M10.1387 52.3569L15.6516 57.9423" stroke="#85B9FF" stroke-width="1.1533" stroke-miterlimit="10" stroke-linecap="round" stroke-linejoin="round"/>
<path d="M19.4258 53.0823L40.2442 73.8281" stroke="#85B9FF" stroke-width="1.1533" stroke-miterlimit="10" stroke-linecap="round" stroke-linejoin="round"/>
<path d="M8.83398 42.4917L13.1137 46.6989" stroke="#85B9FF" stroke-width="1.1533" stroke-miterlimit="10" stroke-linecap="round" stroke-linejoin="round"/>
<path d="M34.3672 59.3203L52.6467 77.5999" stroke="#7AB6F8" stroke-width="1.1533" stroke-miterlimit="10" stroke-linecap="round" stroke-linejoin="round"/>
<path d="M6.80273 31.7561L26.3154 51.1963" stroke="#7AB6F8" stroke-width="1.1533" stroke-miterlimit="10" stroke-linecap="round" stroke-linejoin="round"/>
<path d="M22.1074 38.3569L54.3143 70.5638" stroke="#85B9FF" stroke-width="1.1533" stroke-miterlimit="10" stroke-linecap="round" stroke-linejoin="round"/>
<path d="M8.76172 25.01L15.5803 31.8286" stroke="#85B9FF" stroke-width="1.1533" stroke-miterlimit="10" stroke-linecap="round" stroke-linejoin="round"/>
<path d="M48.7305 56.2739L56.4195 64.0355" stroke="#85B9FF" stroke-width="1.1533" stroke-miterlimit="10" stroke-linecap="round" stroke-linejoin="round"/>
<path d="M1 8.61646L40.5331 48.1496" stroke="#85B9FF" stroke-width="1.1533" stroke-miterlimit="10" stroke-linecap="round" stroke-linejoin="round"/>
<path d="M32.6992 31.6108L71.3619 70.2735" stroke="#7AB6F8" stroke-width="1.1533" stroke-miterlimit="10" stroke-linecap="round" stroke-linejoin="round"/>
<path d="M15.6523 14.5646L24.647 23.5593" stroke="#7AB6F8" stroke-width="1.1533" stroke-miterlimit="10" stroke-linecap="round" stroke-linejoin="round"/>
<path d="M40.2422 30.4504L65.1952 55.4035" stroke="#85B9FF" stroke-width="1.1533" stroke-miterlimit="10" stroke-linecap="round" stroke-linejoin="round"/>
<path d="M14.7812 4.98962L33.2058 23.4142" stroke="#85B9FF" stroke-width="1.1533" stroke-miterlimit="10" stroke-linecap="round" stroke-linejoin="round"/>
<path d="M60.7715 42.3467L73.8283 55.4035" stroke="#7AB6F8" stroke-width="1.1533" stroke-miterlimit="10" stroke-linecap="round" stroke-linejoin="round"/>
<path d="M26.0254 7.60107L51.3411 32.8443" stroke="#7AB6F8" stroke-width="1.1533" stroke-miterlimit="10" stroke-linecap="round" stroke-linejoin="round"/>
<path d="M48.1504 21.0205L65.7771 38.6472" stroke="#85B9FF" stroke-width="1.1533" stroke-miterlimit="10" stroke-linecap="round" stroke-linejoin="round"/>
<path d="M28.1289 1L41.2583 14.1293" stroke="#85B9FF" stroke-width="1.1533" stroke-miterlimit="10" stroke-linecap="round" stroke-linejoin="round"/>
<path d="M63.8184 27.9841L70.6369 34.8752" stroke="#7AB6F8" stroke-width="1.1533" stroke-miterlimit="10" stroke-linecap="round" stroke-linejoin="round"/>
<path d="M38.6465 2.81348L55.9831 20.2226" stroke="#7AB6F8" stroke-width="1.1533" stroke-miterlimit="10" stroke-linecap="round" stroke-linejoin="round"/>
<path d="M60.2637 15.7976L64.4709 20.0048" stroke="#85B9FF" stroke-width="1.1533" stroke-miterlimit="10" stroke-linecap="round" stroke-linejoin="round"/>
<path d="M52.8652 8.3988L55.7667 11.3003" stroke="#85B9FF" stroke-width="1.1533" stroke-miterlimit="10" stroke-linecap="round" stroke-linejoin="round"/>
</svg>
